<svg width="31" height="28" viewBox="0 0 31 28" fill="none" xmlns="http://www.w3.org/2000/svg">
<path d="M10.0909 26.296C10.7185 26.296 11.2273 25.7812 11.2273 25.1462C11.2273 24.5111 10.7185 23.9963 10.0909 23.9963C9.46326 23.9963 8.95447 24.5111 8.95447 25.1462C8.95447 25.7812 9.46326 26.296 10.0909 26.296Z" stroke="white" stroke-width="2" stroke-linecap="round" stroke-linejoin="round"/>
<path d="M26 26.296C26.6276 26.296 27.1364 25.7812 27.1364 25.1462C27.1364 24.5111 26.6276 23.9963 26 23.9963C25.3724 23.9963 24.8636 24.5111 24.8636 25.1462C24.8636 25.7812 25.3724 26.296 26 26.296Z" stroke="white" stroke-width="2" stroke-linecap="round" stroke-linejoin="round"/>
<path d="M1 1H5.54545L8.95454 20.5469H27.1364" stroke="white" stroke-width="2" stroke-linecap="round" stroke-linejoin="round"/>
<path d="M8.95461 15.9477H26.6705C26.8019 15.9477 26.9293 15.9018 27.0309 15.8175C27.1326 15.7332 27.2023 15.6159 27.228 15.4856L29.2735 5.1372C29.29 5.05375 29.288 4.96764 29.2676 4.88508C29.2472 4.80251 29.209 4.72556 29.1557 4.65976C29.1023 4.59397 29.0352 4.54097 28.9592 4.5046C28.8831 4.46824 28.8001 4.4494 28.716 4.44946H6.68188" stroke="white" stroke-width="2" stroke-linecap="round" stroke-linejoin="round"/>
</svg>
