<svg width="30" height="31" viewBox="0 0 30 31" fill="none" xmlns="http://www.w3.org/2000/svg">
<path d="M21.7209 0.489258H8.27874C3.71384 0.489258 0 4.24726 0 8.8662V22.4675C0 27.0867 3.71384 30.8445 8.27874 30.8445H21.7209C26.2862 30.8445 30 27.0865 30 22.4675V8.8662C30.0002 4.24726 26.2862 0.489258 21.7209 0.489258ZM27.3384 22.4675C27.3384 25.6016 24.8185 28.1512 21.7211 28.1512H8.27874C5.18153 28.1514 2.66175 25.6016 2.66175 22.4675V8.8662C2.66175 5.73232 5.18153 3.18252 8.27874 3.18252H21.7209C24.8183 3.18252 27.3383 5.73232 27.3383 8.8662V22.4675H27.3384Z" fill="white"/>
<path d="M15 7.8457C10.7375 7.8457 7.26978 11.3543 7.26978 15.6672C7.26978 19.9798 10.7375 23.4883 15 23.4883C19.2625 23.4883 22.7302 19.9798 22.7302 15.6672C22.7302 11.3543 19.2625 7.8457 15 7.8457ZM15 20.7949C12.2054 20.7949 9.93152 18.4946 9.93152 15.667C9.93152 12.8392 12.2052 10.5387 15 10.5387C17.7948 10.5387 20.0685 12.8392 20.0685 15.667C20.0685 18.4946 17.7947 20.7949 15 20.7949Z" fill="white"/>
<path d="M23.0544 5.56152C22.5416 5.56152 22.0378 5.7716 21.6756 6.13969C21.3117 6.50598 21.1025 7.01591 21.1025 7.53662C21.1025 8.05571 21.3119 8.56547 21.6756 8.93355C22.0376 9.29984 22.5416 9.51172 23.0544 9.51172C23.5691 9.51172 24.0712 9.29984 24.435 8.93355C24.7988 8.56547 25.0064 8.05553 25.0064 7.53662C25.0064 7.01591 24.7988 6.50598 24.435 6.13969C24.073 5.7716 23.5691 5.56152 23.0544 5.56152Z" fill="white"/>
</svg>
