<svg width="23" height="33" viewBox="0 0 23 33" fill="none" xmlns="http://www.w3.org/2000/svg">
<path d="M11.3851 1C5.65167 1 1 5.47981 1 10.9973C1 17.3459 7.92342 27.4067 10.4656 30.8817C10.5711 31.0284 10.7094 31.1477 10.8692 31.23C11.0291 31.3123 11.2058 31.3552 11.3851 31.3552C11.5644 31.3552 11.7412 31.3123 11.901 31.23C12.0608 31.1477 12.1991 31.0284 12.3046 30.8817C14.8468 27.4082 21.7703 17.351 21.7703 10.9973C21.7703 5.47981 17.1186 1 11.3851 1Z" stroke="white" stroke-width="2" stroke-linecap="round" stroke-linejoin="round"/>
<path d="M11.3852 15.011C13.297 15.011 14.8469 13.4427 14.8469 11.5082C14.8469 9.57363 13.297 8.00537 11.3852 8.00537C9.47332 8.00537 7.92346 9.57363 7.92346 11.5082C7.92346 13.4427 9.47332 15.011 11.3852 15.011Z" stroke="white" stroke-width="2" stroke-linecap="round" stroke-linejoin="round"/>
</svg>
