<svg width="191" height="60" viewBox="0 0 191 60" fill="none" xmlns="http://www.w3.org/2000/svg">
<g clip-path="url(#clip0)">
<path d="M173.807 5.43817C173.965 5.59522 174.179 5.68336 174.402 5.68336C174.624 5.68336 174.838 5.59522 174.996 5.43817L180 0.434055C180.157 0.276403 180.246 0.0626745 180.246 -0.160113C180.245 -0.382901 180.157 -0.596498 179.999 -0.753916C179.842 -0.911333 179.628 -0.999677 179.405 -0.999511C179.182 -0.999346 178.969 -0.910685 178.811 -0.753034L174.402 3.65666L169.992 -0.753034C169.834 -0.910685 169.621 -0.999346 169.398 -0.999511C169.175 -0.999677 168.961 -0.911333 168.804 -0.753916C168.646 -0.596498 168.558 -0.382901 168.557 -0.160113C168.557 0.0626745 168.646 0.276403 168.803 0.434055L173.807 5.43817Z" fill="white"/>
<path d="M71.9803 5.68333C73.5296 5.68146 75.0149 5.06518 76.1104 3.96968C77.2059 2.87417 77.8221 1.38888 77.824 -0.160395C77.824 -0.383072 77.7355 -0.596629 77.5781 -0.754085C77.4206 -0.911542 77.2071 -1 76.9844 -1C76.7617 -1 76.5482 -0.911542 76.3907 -0.754085C76.2333 -0.596629 76.1448 -0.383072 76.1448 -0.160395C76.1448 0.944102 75.706 2.00336 74.925 2.78436C74.144 3.56536 73.0848 4.00412 71.9803 4.00412C70.8758 4.00412 69.8165 3.56536 69.0356 2.78436C68.2546 2.00336 67.8158 0.944102 67.8158 -0.160395C67.8158 -0.383072 67.7273 -0.596629 67.5699 -0.754085C67.4124 -0.911542 67.1989 -1 66.9762 -1C66.7535 -1 66.54 -0.911542 66.3825 -0.754085C66.2251 -0.596629 66.1366 -0.383072 66.1366 -0.160395C66.138 1.38903 66.7541 2.87459 67.8497 3.97019C68.9453 5.0658 70.4309 5.68192 71.9803 5.68333Z" fill="white"/>
<path d="M189.617 10.675C189.383 10.675 189.158 10.768 188.993 10.9334C188.828 11.0988 188.735 11.3231 188.735 11.557V15.9667C187.423 13.8817 185.469 12.28 183.167 11.4036C180.865 10.5271 178.34 10.4235 175.974 11.1082C173.608 11.793 171.528 13.229 170.05 15.1994C168.572 17.1698 167.775 19.5676 167.78 22.0309V46.5188C167.78 49.5315 168.977 52.4208 171.107 54.551C173.237 56.6813 176.126 57.8781 179.139 57.8781C182.152 57.8781 185.041 56.6813 187.171 54.551C189.302 52.4208 190.499 49.5315 190.499 46.5188V44.9948C190.499 44.7609 190.406 44.5365 190.24 44.3712C190.075 44.2058 189.851 44.1128 189.617 44.1128C189.383 44.1128 189.158 44.2058 188.993 44.3712C188.828 44.5365 188.735 44.7609 188.735 44.9948V46.5188C188.735 49.0618 187.724 51.5006 185.926 53.2988C184.128 55.097 181.689 56.1072 179.146 56.1072C176.603 56.1072 174.164 55.097 172.366 53.2988C170.568 51.5006 169.558 49.0618 169.558 46.5188V22.0309C169.558 19.4879 170.568 17.049 172.366 15.2508C174.164 13.4527 176.603 12.4424 179.146 12.4424C181.689 12.4424 184.128 13.4527 185.926 15.2508C187.724 17.049 188.735 19.4879 188.735 22.0309V23.0222C188.735 23.2561 188.828 23.4804 188.993 23.6458C189.158 23.8112 189.383 23.9041 189.617 23.9041C189.851 23.9041 190.075 23.8112 190.24 23.6458C190.406 23.4804 190.499 23.2561 190.499 23.0222V11.557C190.499 11.3231 190.406 11.0988 190.24 10.9334C190.075 10.768 189.851 10.675 189.617 10.675Z" fill="white"/>
<path d="M162.026 56.1072H157.338L147.688 12.4389H151.898C152.132 12.4389 152.356 12.346 152.522 12.1806C152.687 12.0152 152.78 11.7909 152.78 11.557C152.78 11.3231 152.687 11.0988 152.522 10.9334C152.356 10.768 152.132 10.675 151.898 10.675H141.08C140.846 10.675 140.622 10.768 140.456 10.9334C140.291 11.0988 140.198 11.3231 140.198 11.557C140.198 11.7909 140.291 12.0152 140.456 12.1806C140.622 12.346 140.846 12.4389 141.08 12.4389H145.289L135.642 56.1072H130.948C130.714 56.1072 130.49 56.2001 130.325 56.3655C130.159 56.5309 130.066 56.7552 130.066 56.9891C130.066 57.223 130.159 57.4474 130.325 57.6128C130.49 57.7782 130.714 57.8711 130.948 57.8711H141.768C142.002 57.8711 142.226 57.7782 142.392 57.6128C142.557 57.4474 142.65 57.223 142.65 56.9891C142.65 56.7552 142.557 56.5309 142.392 56.3655C142.226 56.2001 142.002 56.1072 141.768 56.1072H137.461L140.636 41.7404C140.788 41.87 140.981 41.9429 141.181 41.9468H151.998C152.129 41.9455 152.257 41.9147 152.374 41.8568L155.521 56.1072H151.21C150.976 56.1072 150.752 56.2001 150.586 56.3655C150.421 56.5309 150.328 56.7552 150.328 56.9891C150.328 57.223 150.421 57.4474 150.586 57.6128C150.752 57.7782 150.976 57.8711 151.21 57.8711H162.026C162.26 57.8711 162.484 57.7782 162.65 57.6128C162.815 57.4474 162.908 57.223 162.908 56.9891C162.908 56.7552 162.815 56.5309 162.65 56.3655C162.484 56.2001 162.26 56.1072 162.026 56.1072ZM151.995 40.1759H141.177C141.106 40.1809 141.036 40.1952 140.969 40.2182L146.488 15.217L151.998 40.1759H151.995Z" fill="white"/>
<path d="M126.918 10.675H116.098C115.864 10.675 115.64 10.768 115.475 10.9334C115.309 11.0988 115.216 11.3231 115.216 11.557C115.216 11.7909 115.309 12.0152 115.475 12.1806C115.64 12.346 115.864 12.4389 116.098 12.4389H120.623V52.8317L102.056 11.2042C101.987 11.0467 101.874 10.9128 101.73 10.8187C101.586 10.7247 101.418 10.6748 101.246 10.675H95.7413C95.5074 10.675 95.2831 10.768 95.1177 10.9334C94.9523 11.0988 94.8594 11.3231 94.8594 11.557C94.8594 11.7909 94.9523 12.0152 95.1177 12.1806C95.2831 12.346 95.5074 12.4389 95.7413 12.4389H100.266V56.1072H95.7413C95.5074 56.1072 95.2831 56.2001 95.1177 56.3655C94.9523 56.5309 94.8594 56.7552 94.8594 56.9891C94.8594 57.223 94.9523 57.4474 95.1177 57.6128C95.2831 57.7782 95.5074 57.8711 95.7413 57.8711H106.559C106.793 57.8711 107.017 57.7782 107.183 57.6128C107.348 57.4474 107.441 57.223 107.441 56.9891C107.441 56.7552 107.348 56.5309 107.183 56.3655C107.017 56.2001 106.793 56.1072 106.559 56.1072H102.035V15.4957L120.691 57.3366V57.3525C120.735 57.4435 120.795 57.526 120.868 57.5959C120.887 57.615 120.908 57.6327 120.929 57.6488C120.986 57.6995 121.05 57.7422 121.118 57.7758C121.146 57.7905 121.174 57.8035 121.203 57.8146C121.299 57.8537 121.402 57.8746 121.506 57.8764C121.618 57.8755 121.729 57.8534 121.833 57.8111L121.857 57.8023C121.889 57.7837 121.919 57.7631 121.947 57.7405C122.014 57.7042 122.076 57.6598 122.132 57.6083C122.166 57.5661 122.196 57.5213 122.222 57.4742C122.259 57.4271 122.29 57.3763 122.316 57.3225C122.338 57.257 122.352 57.1888 122.356 57.1197C122.369 57.0787 122.378 57.0368 122.383 56.9944V12.4389H126.907C127.141 12.4389 127.365 12.346 127.531 12.1806C127.696 12.0152 127.789 11.7909 127.789 11.557C127.789 11.3231 127.696 11.0988 127.531 10.9334C127.365 10.768 127.141 10.675 126.907 10.675H126.918Z" fill="white"/>
<path d="M86.6927 10.675H75.8748C75.6409 10.675 75.4166 10.768 75.2512 10.9334C75.0858 11.0988 74.9929 11.3231 74.9929 11.557C74.9929 11.7909 75.0858 12.0152 75.2512 12.1806C75.4166 12.346 75.6409 12.4389 75.8748 12.4389H80.0341C78.7006 16.2189 74.4232 28.3244 71.1477 37.3766C68.3978 29.7337 64.766 19.4944 62.2754 12.4389H66.4328C66.6667 12.4389 66.8911 12.346 67.0564 12.1806C67.2218 12.0152 67.3148 11.7909 67.3148 11.557C67.3148 11.3231 67.2218 11.0988 67.0564 10.9334C66.8911 10.768 66.6667 10.675 66.4328 10.675H55.615C55.3811 10.675 55.1567 10.768 54.9913 10.9334C54.826 11.0988 54.733 11.3231 54.733 11.557C54.733 11.7909 54.826 12.0152 54.9913 12.1806C55.1567 12.346 55.3811 12.4389 55.615 12.4389H60.3986C61.5275 15.6404 66.7239 30.344 70.204 39.9766C68.77 43.9118 67.6481 46.9139 67.2513 47.7799C65.8684 50.812 65.9072 54.2216 67.35 56.4688C68.2232 57.8252 69.5214 58.5731 71.0066 58.5731C71.8262 58.576 72.6329 58.3685 73.3494 57.9704C74.0659 57.5723 74.6682 56.997 75.0987 56.2995C76.4975 54.1123 76.4446 50.8897 74.9576 47.6776C74.6772 47.0726 73.58 44.104 72.0878 39.9801C75.6156 30.2788 80.7855 15.6386 81.9108 12.4389H86.6927C86.9266 12.4389 87.1509 12.346 87.3163 12.1806C87.4817 12.0152 87.5746 11.7909 87.5746 11.557C87.5746 11.3231 87.4817 11.0988 87.3163 10.9334C87.1509 10.768 86.9266 10.675 86.6927 10.675ZM73.3507 48.422C74.5855 51.0819 74.6789 53.6713 73.6083 55.3452C73.3383 55.7929 72.9565 56.1627 72.5003 56.4181C72.0441 56.6736 71.5294 56.8059 71.0066 56.8022C69.9024 56.8022 69.218 56.0966 68.8405 55.511C67.9162 54.0752 67.5652 51.3553 68.8617 48.5155C69.2039 47.7694 70.0417 45.5575 71.1424 42.5642C72.2695 45.6633 73.0985 47.8805 73.3507 48.422Z" fill="white"/>
<path d="M12.079 10.7615C11.9619 10.7048 11.8334 10.6753 11.7033 10.675H0.881938C0.648033 10.675 0.423709 10.768 0.258314 10.9334C0.0929182 11.0988 0 11.3231 0 11.557C0 11.7909 0.0929182 12.0152 0.258314 12.1806C0.423709 12.346 0.648033 12.4389 0.881938 12.4389H5.40981V56.1072H0.881938C0.648033 56.1072 0.423709 56.2001 0.258314 56.3655C0.0929182 56.5309 0 56.7552 0 56.9891C0 57.223 0.0929182 57.4474 0.258314 57.6128C0.423709 57.7782 0.648033 57.8711 0.881938 57.8711H11.7033C11.9372 57.8711 12.1615 57.7782 12.3269 57.6128C12.4923 57.4474 12.5852 57.223 12.5852 56.9891C12.5852 56.7552 12.4923 56.5309 12.3269 56.3655C12.1615 56.2001 11.9372 56.1072 11.7033 56.1072H7.17897V40.6468H10.966C16.6598 40.6468 21.2917 33.9229 21.2917 25.6539C21.2917 17.9405 17.2507 11.5711 12.079 10.7615ZM10.966 38.8759H7.17897V12.4389H10.966C15.6844 12.4389 19.5226 18.3673 19.5226 25.6556C19.5226 32.944 15.6844 38.8759 10.966 38.8759Z" fill="white"/>
<path d="M29.4691 9.54785C28.206 9.54818 26.9447 9.6443 25.6961 9.83536C25.4832 9.86246 25.2875 9.96626 25.1457 10.1273C25.0038 10.2884 24.9255 10.4956 24.9255 10.7102C24.9255 10.9249 25.0038 11.1321 25.1457 11.2932C25.2875 11.4542 25.4832 11.558 25.6961 11.5851C36.7856 13.2837 45.1552 23.038 45.1552 34.2739C45.1552 45.5098 36.7944 55.264 25.705 56.9644C25.4921 56.9915 25.2963 57.0953 25.1545 57.2563C25.0126 57.4174 24.9344 57.6246 24.9344 57.8392C24.9344 58.0539 25.0126 58.2611 25.1545 58.4222C25.2963 58.5832 25.4921 58.687 25.705 58.7141C26.9505 58.9063 28.2088 59.0036 29.4691 59.0052C43.1038 59.0052 54.1951 47.9122 54.1951 34.2774C54.1951 20.6426 43.1038 9.54785 29.4691 9.54785ZM31.6104 57.1319C40.6362 53.3731 46.9191 44.3809 46.9191 34.2739C46.9191 24.1669 40.6362 15.1764 31.6104 11.4176C43.2679 12.5023 52.4241 22.3395 52.4241 34.2739C52.4241 46.2082 43.2679 56.0471 31.6104 57.1319Z" fill="white"/>
</g>
<defs>
<clipPath id="clip0">
<rect width="190.499" height="60" fill="white"/>
</clipPath>
</defs>
</svg>
