<svg width="32" height="34" viewBox="0 0 32 34" fill="none" xmlns="http://www.w3.org/2000/svg">
<path d="M30.0617 25.5527C28.9165 24.3853 26.1431 22.6815 24.7975 21.9949C23.0451 21.1018 22.9009 21.0288 21.5236 22.0642C20.6049 22.7552 19.9941 23.3725 18.9189 23.1405C17.8437 22.9084 15.5072 21.6001 13.4614 19.5367C11.4156 17.4732 10.0476 15.0405 9.81758 13.9562C9.58755 12.8719 10.2077 12.2612 10.8841 11.3294C11.8374 10.016 11.7653 9.79713 10.9505 8.02406C10.3152 6.645 8.5823 3.86498 7.42418 2.71212C6.18529 1.47388 6.18529 1.69278 5.387 2.02843C4.73711 2.30511 4.11362 2.64142 3.52434 3.03317C2.37055 3.8088 1.73019 4.45309 1.28237 5.42135C0.834554 6.38961 0.633361 8.65959 2.946 12.9106C5.25864 17.1616 6.88117 19.3353 10.2394 22.7238C13.5977 26.1124 16.1801 27.9343 19.9551 30.0766C24.6251 32.7231 26.4164 32.2072 27.3762 31.7548C28.336 31.3024 28.9757 30.6603 29.7437 29.4929C30.1318 28.8976 30.4649 28.2675 30.7388 27.6104C31.0712 26.8055 31.2876 26.8055 30.0617 25.5527Z" stroke="white" stroke-width="2" stroke-miterlimit="10"/>
</svg>
