<svg width="27" height="28" viewBox="0 0 27 28" fill="none" xmlns="http://www.w3.org/2000/svg">
<path d="M11.2272 1C9.20448 1 7.22715 1.60692 5.54529 2.744C3.86343 3.88109 2.55258 5.49728 1.77851 7.38818C1.00443 9.27909 0.801898 11.3598 1.19652 13.3672C1.59114 15.3745 2.56519 17.2184 3.99549 18.6657C5.4258 20.1129 7.24811 21.0985 9.232 21.4978C11.2159 21.8971 13.2722 21.6921 15.141 20.9089C17.0098 20.1257 18.6071 18.7993 19.7309 17.0975C20.8547 15.3958 21.4545 13.395 21.4545 11.3483C21.4543 8.60382 20.3767 5.97179 18.4588 4.03114C16.5408 2.0905 13.9396 1.00017 11.2272 1V1Z" stroke="white" stroke-width="2" stroke-miterlimit="10"/>
<path d="M18.8574 19.0688L26 26.296" stroke="white" stroke-width="2" stroke-miterlimit="10" stroke-linecap="round"/>
</svg>
