<svg width="40" height="26" viewBox="0 0 40 26" fill="none" xmlns="http://www.w3.org/2000/svg">
<path d="M20.2417 25.8208C26.0284 25.8208 23.965 22.1141 24.4117 21.0483C24.405 20.2523 24.3984 19.4867 24.425 19.0213C24.7917 19.1258 25.6567 19.5693 27.4434 21.3266C30.2017 24.1428 30.9067 25.8208 33.135 25.8208H37.2367C38.5367 25.8208 39.2134 25.2761 39.5517 24.8191C39.8784 24.3772 40.1984 23.6015 39.8484 22.3941C38.9334 19.4867 33.5967 14.4663 33.265 13.9368C33.315 13.839 33.395 13.7091 33.4367 13.6417H33.4334C34.4867 12.2335 38.5067 6.13891 39.0984 3.70038C39.1 3.69701 39.1017 3.69195 39.1017 3.68689C39.4217 2.57387 39.1284 1.85209 38.8251 1.44399C38.3684 0.833512 37.6417 0.524902 36.66 0.524902H32.5584C31.185 0.524902 30.1434 1.22476 29.6167 2.50136C28.735 4.76955 26.2584 9.43412 24.4017 11.0851C24.345 8.74607 24.3834 6.96018 24.4134 5.63299C24.4734 3.04437 24.6667 0.524902 22.0117 0.524902H15.565C13.9017 0.524902 12.31 2.36307 14.0334 4.54526C15.54 6.45763 14.575 7.52343 14.9 12.8288C13.6333 11.4544 11.38 7.74267 9.78668 2.99884C9.34001 1.7155 8.66334 0.526589 6.75834 0.526589H2.65667C0.993335 0.526589 0 1.44399 0 2.98029C0 6.43065 7.54834 25.8208 20.2417 25.8208ZM6.75834 3.05618C7.12001 3.05618 7.15668 3.05618 7.42501 3.82686C9.05668 8.68873 12.7167 15.8829 15.39 15.8829C17.3984 15.8829 17.3984 13.8002 17.3984 13.016L17.3967 6.77299C17.2867 4.70716 16.5434 3.67846 16.055 3.05449L21.9017 3.06124C21.905 3.08991 21.8684 9.96702 21.9184 11.6332C21.9184 13.9992 23.775 15.355 26.6734 12.387C29.7317 8.89447 31.8467 3.6734 31.9317 3.46091C32.0567 3.15736 32.165 3.05449 32.5584 3.05449H36.66H36.6767C36.675 3.05955 36.675 3.06461 36.6734 3.06967C36.2984 4.84038 32.5967 10.4831 31.3584 12.2352C31.3384 12.2622 31.32 12.2909 31.3017 12.3195C30.7567 13.2201 30.3134 14.215 31.3767 15.6147H31.3784C31.475 15.7328 31.7267 16.0094 32.0934 16.3939C33.2334 17.5845 37.1434 21.6554 37.49 23.2743C37.26 23.3114 37.01 23.2845 33.135 23.2929C32.31 23.2929 31.665 22.045 29.2034 19.5322C26.99 17.3534 25.5534 16.463 24.245 16.463C21.705 16.463 21.89 18.5491 21.9134 21.0719C21.9217 23.8072 21.905 22.9421 21.9234 23.1141C21.775 23.1732 21.35 23.2912 20.2417 23.2912C9.66668 23.2912 2.78 6.30755 2.515 3.06124C2.60667 3.05281 3.86834 3.05786 6.75834 3.05618Z" fill="white"/>
</svg>
